<svg xmlns="http://www.w3.org/2000/svg" width="27.777" height="34" viewBox="0 0 27.777 34"><path d="M27.435.662,22.944.007a.389.389,0,0,0-.319.079L20.713,2.547a.593.593,0,0,0-.106.55.253.253,0,0,1-.292.314l-1.568-.34a.657.657,0,0,0-.664.236l-6.217,7.855a.412.412,0,0,1-.5.131L9,10.245a.62.62,0,0,0-.638.052l-1.2.812a.669.669,0,0,1-.664.052l-.585-.288a.666.666,0,0,0-.93.419l-.425,1.859a1.015,1.015,0,0,0,.478,1.126l.9.55,2.9,1.754,1.408.864a1.093,1.093,0,0,0,1.249-.1L13.858,15.3a.611.611,0,0,1,.691-.079l.717.367a.61.61,0,0,0,.717-.1l1.2-1.1a.617.617,0,0,1,.691-.1l1.78.812a.628.628,0,0,0,.771-.183l.824-1.047,6.244-7.881a.636.636,0,0,0-.372-1.021l-1.382-.314a.377.377,0,0,1-.213-.628l2.152-2.645A.425.425,0,0,0,27.435.662Z" fill="#fff"/><path d="M6.843,16.529a.146.146,0,0,0-.213.183l.664,1.728a.665.665,0,0,1,.027.393l-.585,2.252a.407.407,0,0,0,.133.393l1.674,1.283a.4.4,0,0,0,.5-.026L10.8,21.216a1.015,1.015,0,0,1,.345-.157l1.993-.209a.156.156,0,0,0,.053-.288Z" fill="#fff"/><path d="M6.258,22.342a.429.429,0,0,0-.4-.052l-1.408.681a.416.416,0,0,0-.186.183l-3,7.305v.052a.139.139,0,0,0,.106.052L2.06,30.3h.08c.027.026.053.079.027.1L.014,33.889a.066.066,0,1,0,.106.079l7.785-7.7a.5.5,0,0,0,.133-.262l.159-1.99a.43.43,0,0,0-.133-.314Z" fill="#fff"/></svg>